<svg xmlns="http://www.w3.org/2000/svg" viewBox="0 0 1370 17.81"><defs><style>.cls-1{fill:#f5ca1f;}</style></defs><title>fanfare_solidaire</title><g id="Calque_2" data-name="Calque 2"><g id="Calque_1-2" data-name="Calque 1"><rect class="cls-1" y="0.81" width="559" height="17"/><rect class="cls-1" x="815" y="0.81" width="555" height="17"/><path class="cls-1" d="M577,3.43h9.23V5.68h-7v5.2h5.66v2.25h-5.66v7.45H577V3.44Z" transform="translate(0 -3.23)"/><path class="cls-1" d="M596.29,3.43s.36.84,1,2.52l6,14.64h-2.48a3.59,3.59,0,0,1-.34-.78l-1.18-2.91h-8.16l-1.49,3.69h-2.43l5.94-14.65,1-2.51Zm-4.24,11.2h6.29l-3.13-7.74s-.46,1.05-1.29,3.17Z" transform="translate(0 -3.23)"/><path class="cls-1" d="M605.64,3.43h2.44l8.23,12.27.76,1.14h0V3.46l0,0h2.21l0,0V20.57l0,0h-2.44q-.63-.88-4.68-7l-4.34-6.43V20.57l0,0h-2.19l0,0V3.46Z" transform="translate(0 -3.23)"/><path class="cls-1" d="M623.4,3.43h9.24V5.68h-7v5.2h5.67v2.25h-5.67v7.45h-2.26V3.44Z" transform="translate(0 -3.23)"/><path class="cls-1" d="M642.71,3.43s.37.84,1,2.52l6,14.64h-2.48a3.07,3.07,0,0,1-.34-.78l-1.19-2.91h-8.15l-1.49,3.69h-2.43l5.94-14.65,1-2.51Zm-4.23,11.2h6.29l-3.14-7.74s-.45,1.05-1.29,3.17Z" transform="translate(0 -3.23)"/><path class="cls-1" d="M652.06,3.43h5.66a6.07,6.07,0,0,1,4.62,2,5.55,5.55,0,0,1,1.35,3.61,5.48,5.48,0,0,1-1.93,4.18,5.9,5.9,0,0,1-1.83,1.08s.76,1.36,2.3,4l1.31,2.26,0,0h-2.67a8.17,8.17,0,0,1-.64-1.13c-1.66-2.9-2.55-4.48-2.67-4.72h-3.26v5.83l0,0h-2.2l0,0V3.46Zm2.22,2.28v6.75h3.55a3.74,3.74,0,0,0,2.91-1.4,3.23,3.23,0,0,0,.68-1.91V9a3.23,3.23,0,0,0-1.48-2.64,4.22,4.22,0,0,0-2.55-.68h-3.07Z" transform="translate(0 -3.23)"/><path class="cls-1" d="M666.29,3.43h9.23V5.69h-7v5.2h5.54v2.23h-5.54v5.2h7v2.25h-9.25V3.44Z" transform="translate(0 -3.23)"/><path class="cls-1" d="M689.42,3.23h.2a5.83,5.83,0,0,1,2.63.64,7.34,7.34,0,0,1,.81.52,6.73,6.73,0,0,1,.63.54,5.62,5.62,0,0,1,.66.8c.12.17.22.34.32.51l-2,1a3.09,3.09,0,0,0-.45-.61A3.81,3.81,0,0,0,687,6.42a2.45,2.45,0,0,0-.46.63,2.35,2.35,0,0,0-.28,1.12v.08a1.45,1.45,0,0,0,.6,1.25,3.22,3.22,0,0,0,.51.34,9,9,0,0,0,1.81.67c.6.18,1.31.35,2.15.53a7,7,0,0,1,1.17.42,5.7,5.7,0,0,1,.95.6,4.65,4.65,0,0,1,.76.78,4.54,4.54,0,0,1,.93,2.78v.06a5.05,5.05,0,0,1-.9,2.85,5.9,5.9,0,0,1-.55.67,6.23,6.23,0,0,1-.9.7,4.85,4.85,0,0,1-.82.42,6.41,6.41,0,0,1-2.54.52,6.26,6.26,0,0,1-3.72-1.2c-.21-.16-.42-.34-.64-.54a5.59,5.59,0,0,1-.65-.73,6.65,6.65,0,0,1-.57-.86,4.48,4.48,0,0,1-.23-.49l2-.95a4.44,4.44,0,0,0,.52.87,3.37,3.37,0,0,0,.47.53,4.06,4.06,0,0,0,.74.56,4,4,0,0,0,2,.53h.08a4.16,4.16,0,0,0,2-.51,5.32,5.32,0,0,0,.54-.4,3.06,3.06,0,0,0,.47-.58,2.89,2.89,0,0,0,.4-1.43,2.25,2.25,0,0,0-1-1.92,3.62,3.62,0,0,0-.53-.29,6.26,6.26,0,0,0-1.28-.35,15.9,15.9,0,0,1-3.59-1.15,4,4,0,0,1-2.49-3.73,4.78,4.78,0,0,1,1.09-3,5.21,5.21,0,0,1,.76-.73,6.08,6.08,0,0,1,.84-.56,5.48,5.48,0,0,1,1-.38A6.44,6.44,0,0,1,689.42,3.23Z" transform="translate(0 -3.23)"/><path class="cls-1" d="M705.37,3.43h0a8.06,8.06,0,0,1,6,2.66A8.79,8.79,0,0,1,713.65,12,8.69,8.69,0,0,1,711,18.36a8,8,0,0,1-11.09.05,8.5,8.5,0,0,1-1.41-1.74A8.62,8.62,0,0,1,697.13,12v0a8.73,8.73,0,0,1,2.72-6.36l.79-.64A8,8,0,0,1,705.37,3.43Zm-6,8.57a6.51,6.51,0,0,0,2.12,4.83,5.79,5.79,0,0,0,8.65-1,6.47,6.47,0,0,0,1.23-3.73V12a6.48,6.48,0,0,0-1.68-4.35,5.79,5.79,0,0,0-8.94.38A6.58,6.58,0,0,0,699.38,12Z" transform="translate(0 -3.23)"/><path class="cls-1" d="M716.74,3.43H719v14.9h7.46v2.24h-9.73V3.44Z" transform="translate(0 -3.23)"/><path class="cls-1" d="M728.69,3.43H731V20.59h-2.27V3.44Z" transform="translate(0 -3.23)"/><path class="cls-1" d="M735,3.44h4.47a8.56,8.56,0,0,1,5.62,2.09,9.43,9.43,0,0,1,1.24,1.32A8.44,8.44,0,0,1,748.09,12v.12a8.52,8.52,0,0,1-2.61,6.11,8.92,8.92,0,0,1-2.8,1.8,8.45,8.45,0,0,1-3.09.61H735l0,0V3.47Zm2.23,2.29V18.34h2.06a6.43,6.43,0,0,0,5-2.21,6.26,6.26,0,0,0,0-8.25,6.44,6.44,0,0,0-1.44-1.22A6.78,6.78,0,0,0,741.36,6a8,8,0,0,0-2.3-.28h-1.79Z" transform="translate(0 -3.23)"/><path class="cls-1" d="M758.68,3.43s.37.84,1,2.52l6,14.64h-2.47a3.07,3.07,0,0,1-.34-.78l-1.19-2.91h-8.15L752,20.6h-2.43l5.94-14.65,1-2.51Zm-4.23,11.2h6.29L757.6,6.89s-.45,1.05-1.29,3.17Z" transform="translate(0 -3.23)"/><path class="cls-1" d="M768,3.43h2.25V20.59H768V3.44Z" transform="translate(0 -3.23)"/><path class="cls-1" d="M774.33,3.43H780a6.09,6.09,0,0,1,4.62,2A5.55,5.55,0,0,1,786,9.08,5.46,5.46,0,0,1,784,13.26a5.69,5.69,0,0,1-1.83,1.08s.77,1.36,2.3,4l1.32,2.26,0,0h-2.67a8.17,8.17,0,0,1-.64-1.13c-1.66-2.9-2.55-4.48-2.67-4.72h-3.26v5.83l0,0h-2.2l0,0V3.46Zm2.22,2.28v6.75h3.54a3.71,3.71,0,0,0,2.91-1.4,3.17,3.17,0,0,0,.68-1.91V9a3.22,3.22,0,0,0-1.47-2.64,4.22,4.22,0,0,0-2.55-.68h-3.07Z" transform="translate(0 -3.23)"/><path class="cls-1" d="M788.55,3.43h9.24V5.69h-7v5.2h5.53v2.23h-5.53v5.2h7v2.25h-9.25V3.44Z" transform="translate(0 -3.23)"/></g></g></svg>