<svg xmlns="http://www.w3.org/2000/svg" viewBox="0 0 561.12 229.28"><defs><style>.cls-1{fill:#202048;}</style></defs><title>manzakin bleu</title><g id="Calque_2" data-name="Calque 2"><g id="Calque_1-2" data-name="Calque 1"><path class="cls-1" d="M433.06,145.15l3.48,66-40.1-48.39v-.95l34.24-58.11L426.9,91.14l-30.21,55q.62-34.78,1.86-68.82L375.29,90.49c0,9.49.26,47.57.32,57.06.06,10.06.29,48.83.35,58.89q-10.24-22.18-20.45-44.4-11-23.92-21.95-47.9l-8.77,5-18.06,86.27L169,205.8,325.85,92.47l5.39-3.91,3-2.15,2.17-1.56h0L453.87,0H242.14q.41,34.1.84,68.19Q232.42,51.17,221.87,34T201,0L173.77,0q-.22,37.61-.44,75.21-4.8-12.6-9.62-25.22Q154.14,25,144.55,0h-7.61Q128,64.43,119.11,128.81L104.54,66.64C100,47.11,93.49,19.57,88.89,0H84.64c-2.7,18.63-8,55.47-10.77,74.1S65.8,129.47,63.09,148Q52.29,110.46,41.3,72.74,30.68,36.28,20,0H0V229.2l25.12-15.49q1.06-82.82,2.12-165.64Q37.13,83.49,47,118.89q10.09,36.2,20.2,72.38l5.21-2.78L90.91,71.1q4.62,23.84,9.23,47.68,4.8,24.9,9.58,49.82l11-5.87q3.69-27,7.37-54.06l31.23-5.47,12.73,32.16,7.4-3.94q.31-30.85.71-61.7.35-27.87.75-55.74,12.2,19.11,24.35,38.28,15.48,24.45,30.88,48.93l14-7.48q0-35.71-.07-71.41L386.48,21,98.79,229.21H320.93l43.12-29.46L378,229.21h18.19q-.07-17.55,0-35.29c0-7.09.1-14.14.17-21.18Q420,201,443.67,229.21h14.7q-2.26-42.72-4.52-85.42ZM129.53,96.78Q133.32,68.4,137.09,40c.5,1.36,13.26,36.27,13.75,37.63.08.21,5.27,14.4,5.34,14.61l-26.65,4.55M328.23,205,340,148.73,357.11,185Z"/><path class="cls-1" d="M541.9,0q.57,83.21,1.16,166.41Q519.27,83.25,495.49,0h-21.1q2.7,114.59,5.38,229.17l20.83.07q-2.4-99.43-4.81-198.86L551.5,229.21h9.62V0H541.9"/></g></g></svg>