<svg xmlns="http://www.w3.org/2000/svg" viewBox="0 0 56.18 56.18"><defs><style>.cls-1{fill:#f5ca1f;}</style></defs><title>menu</title><g id="Calque_2" data-name="Calque 2"><g id="Calque_1-2" data-name="Calque 1"><path class="cls-1" d="M28.09,0,0,28.09,28.09,56.18,56.18,28.09ZM51.62,25.35,45,31.82l-1.12-2,6.23-6.05Zm-2.69-2.68L43,28.41l-1.78-3.12-.67.37c.32.63-1.14,2-1.69,2.48A9.94,9.94,0,0,0,36.61,31a32.64,32.64,0,0,0-1.86,5.49L33.5,37.66c.84-3.37,1.59-6.41,2.27-9.13L44,17.76Zm-15,16.83c-.22.82-.45,1.69-.68,2.63-.2.76-.32,1.22-.42,1.49s-.21.37-.37.35l-.17,0a.23.23,0,0,1-.15-.11,1.46,1.46,0,0,1,.06-.88v0c.19-.78.38-1.54.57-2.29Zm9.13-22.72-6.46,8.43c1.33-5.35,2.29-9.24,2.95-11.93ZM21,9l7.13-7.13L35.3,9,28.16,20.55m-8.3-10.49L27.26,22l.9,1.44L29.05,22,36.4,10.13l.55.55L28.16,29.13,19.32,10.6Zm-1.27,1.26,9,18.94.54,1.11.53-1.12,9-18.84.12.12c-.16.57-.36,1.25-.57,1.86,0,.16-3.6,11.34-5.94,18.74l-3.13,4.09L25,32.12c-2.34-7.4-5.89-18.57-5.94-18.73-.22-.65-.44-1.37-.59-2Zm9.64,31.46-.07.08-.08-.08A26,26,0,0,0,27,38.5l-.14-.44c-.13-.44-.36-1.18-.66-2.12l1.07,1.41.87,1.11L29,37.34l1.07-1.4-.66,2.12-.14.44a26,26,0,0,0-1.06,4.28m.46,3.54a3.47,3.47,0,0,0,.56.76l-1.09,1.07-1.1-1.07a3.47,3.47,0,0,0,.56-.76A4.14,4.14,0,0,0,28.06,45l.1.09V43.93A5.53,5.53,0,0,0,28.25,45a4.16,4.16,0,0,0,.44,1.3m-12-33.14c.66,2.69,1.63,6.61,3,12L13.2,16.71Zm-4.51,4.51,8.31,10.85c.68,2.71,1.43,5.75,2.27,9.12l-1.25-1.21A32.64,32.64,0,0,0,19.7,31a9.77,9.77,0,0,0-2.27-2.82c-.55-.51-2-1.85-1.69-2.48l-.67-.37-1.78,3.12-6-5.81ZM23.54,40.62c.19.75.38,1.51.57,2.29v0a1.46,1.46,0,0,1,.06.88.21.21,0,0,1-.15.11l-.17,0c-.16,0-.25,0-.37-.36s-.22-.72-.42-1.48c-.23-.94-.46-1.81-.68-2.63ZM6.17,23.74l6.3,6.12-1.12,2L4.63,25.29ZM1.82,28.09l1.67-1.66,7,6.83.08.09,6.65,6.45c.64,2.09,1.31,4.37,1.32,4.4a6.87,6.87,0,0,0,.37,1Zm10.24,4.42a2.33,2.33,0,0,1,2.4.82,7,7,0,0,1,1.78,3.23ZM19.32,44s-.43-1.46-.92-3.09c-.34-1.1-.7-2.29-1-3.2-.05-.17-.1-.32-.15-.47l-.12-.37A8.61,8.61,0,0,0,15,32.78a3.29,3.29,0,0,0-2.69-1.11L13,30.41,13.86,29l1.3-2.28a8.44,8.44,0,0,0,1.75,2A9.17,9.17,0,0,1,19,31.36a21.64,21.64,0,0,1,1.4,4c.25.85.54,1.87.87,3.1s.64,2.38,1,3.86l.06.23c.47,1.81.67,2.43,1.82,2.14a1.09,1.09,0,0,0,.27-.11.9.9,0,0,0,.37-.38,2,2,0,0,0,0-1.49c-.08-.35-.17-.71-.26-1.07-.23-.94-.48-1.93-.74-3-.66-2.68-1.4-5.65-2.14-8.61-.27-1.11-.55-2.23-.82-3.33-1.47-5.94-2.84-11.46-3.51-14.2l.48-.48c.12.43.28.94.49,1.58,0,.13,3,9.45,5.29,16.7.44,1.37.85,2.67,1.21,3.82.61,1.91,1.07,3.4,1.3,4.13l.13.44c.31,1,.65,2.08.87,3.15a8.83,8.83,0,0,1,.22,2.46A4,4,0,0,1,27,46a3.31,3.31,0,0,1-.44.6,3.62,3.62,0,0,1-1.41.88l-.41.13a3.87,3.87,0,0,1-3.07-.29A6,6,0,0,1,19.32,44m8.77,10.36L22,48.3a4.24,4.24,0,0,0,1.38.22,5.75,5.75,0,0,0,1.49-.21,5.92,5.92,0,0,0,.81-.29L27,49.27l1.16,1.12,1.15-1.12L30.6,48a5.92,5.92,0,0,0,.81.29,5.75,5.75,0,0,0,1.49.21,4.62,4.62,0,0,0,1.19-.16Zm6.6-7.09a3.86,3.86,0,0,1-3.07.29l-.41-.13a3.5,3.5,0,0,1-1.41-.88,2.9,2.9,0,0,1-.44-.6,4,4,0,0,1-.42-1.61,8.87,8.87,0,0,1,.22-2.46c.22-1.07.56-2.16.87-3.15l.13-.44,1.3-4.14c.36-1.14.77-2.44,1.21-3.81C35,23.09,37.92,13.77,38,13.64c.2-.59.35-1.07.47-1.48l.48.48c-.68,2.78-2,8.23-3.49,14.1-.27,1.1-.55,2.21-.82,3.32-.74,3-1.48,5.94-2.14,8.62-.26,1-.51,2-.74,3-.09.36-.18.72-.26,1.07a2,2,0,0,0,0,1.49.9.9,0,0,0,.37.38,1.09,1.09,0,0,0,.27.11c1.15.29,1.35-.33,1.82-2.14l.06-.23c.38-1.48.72-2.75,1-3.87s.62-2.24.87-3.08a22.5,22.5,0,0,1,1.4-4,9.34,9.34,0,0,1,2.13-2.65,8.44,8.44,0,0,0,1.75-2L42.45,29l.82,1.45L44,31.67a3.29,3.29,0,0,0-2.69,1.11,8.61,8.61,0,0,0-2.13,4.09l-.12.37c0,.15-.1.3-.15.47-.29.91-.65,2.1-1,3.2C37.42,42.54,37,44,37,44a6,6,0,0,1-2.3,3.27m9.56-14.76-4.17,4.06a6.85,6.85,0,0,1,1.77-3.24,2.33,2.33,0,0,1,2.4-.82M37.73,44.2s.68-2.31,1.32-4.4l6.65-6.45.08-.08,7-6.78,1.6,1.6L37.45,45a6.45,6.45,0,0,0,.28-.8"/></g></g></svg>